<svg width="20" height="20" viewBox="0 0 20 20" fill="none" xmlns="http://www.w3.org/2000/svg">
<g id="Group">
<path id="Vector" d="M1 10C1 7.61305 1.94821 5.32387 3.63604 3.63604C5.32387 1.94821 7.61305 1 10 1C12.3869 1 14.6761 1.94821 16.364 3.63604C18.0518 5.32387 19 7.61305 19 10V15.7262C19 16.6803 19 17.155 18.8582 17.5364C18.7455 17.8386 18.5692 18.113 18.3411 18.3411C18.113 18.5692 17.8386 18.7455 17.5364 18.8582C17.155 19 16.6791 19 15.7262 19H10C7.61305 19 5.32387 18.0518 3.63604 16.364C1.94821 14.6761 1 12.3869 1 10Z" fill="white" stroke="white"/>
<path id="Vector_2" d="M6.625 8.875H13.375M10 13.375H13.375" stroke="black" stroke-width="2" stroke-linecap="round" stroke-linejoin="round"/>
</g>
</svg>
