<svg width="20" height="20" viewBox="0 0 20 20" fill="none" xmlns="http://www.w3.org/2000/svg">
<path id="Vector" d="M19 17.0263V9.70194C19 9.16653 18.8896 8.63671 18.6756 8.14473C18.4616 7.65274 18.1483 7.20886 17.755 6.8401L11.378 1.54277C11.0063 1.1943 10.5132 1 10.0005 1C9.48781 1 8.9947 1.1943 8.623 1.54277L2.245 6.8401C1.85165 7.20886 1.53844 7.65274 1.3244 8.14473C1.11037 8.63671 0.999999 9.16653 1 9.70194L1 17.0263C1 17.5498 1.21071 18.0518 1.58579 18.4219C1.96086 18.7921 2.46957 19 3 19H17C17.5304 19 18.0391 18.7921 18.4142 18.4219C18.7893 18.0518 19 17.5498 19 17.0263Z" fill="white" stroke="white" stroke-linecap="round" stroke-linejoin="round"/>
</svg>
